<svg width="48" height="48" viewBox="0 0 48 48" fill="none" xmlns="http://www.w3.org/2000/svg">
  <circle cx="24" cy="24" r="24" fill="white"/>
  <path d="M24 10C29.6 10 34.5 13.3 36.6 18.2L29.5 18.9C28.6 17.8 27.3 17 24 17H19.1C15.9 17 12.9 19.4 12.3 22.5L7.7 15.6C10.5 12.1 15.2 10 24 10Z" fill="#EA4335"/>
  <path d="M30.4 24C30.4 26.4 28.4 28.4 26 28.4C23.6 28.4 21.6 26.4 21.6 24C21.6 21.6 23.6 19.6 26 19.6C28.4 19.6 30.4 21.6 30.4 24Z" fill="#4285F4"/>
  <path d="M10.8 24C10.8 21.5 11.7 19.2 13.1 17.5L18.5 25.5C18.5 28.8 21.2 31.5 24.5 31.5L22.5 38C15.9 38 10.8 31.8 10.8 24Z" fill="#34A853"/>
  <path d="M24 38C21.5 38 19.2 37.2 17.4 35.9L22.8 27.9C23.8 28.6 25.1 29 26.5 28.8L32.1 38.8C29.7 38.6 27.1 38 24 38Z" fill="#FBBC05"/>
  <path d="M37.2 24C37.2 25.5 37 27 36.5 28.4L25.5 28.5C27.9 27.6 29.4 25.2 28.6 22.8L37.2 15.5C37.2 15.5 37.2 20.5 37.2 24Z" fill="#4285F4"/>
</svg> 