<svg xmlns="http://www.w3.org/2000/svg" width="24" height="24" viewBox="0 0 24 24" fill="none">
  <path d="M17.04 12.55C17.02 10.71 18.1 9.46 19.27 8.66C18.4 7.38 17 6.68 15.69 6.61C14.3 6.55 12.82 7.45 12.2 7.45C11.56 7.45 10.26 6.65 9.14 6.65C7.13 6.68 5 8.19 5 11.27C5 12.2 5.17 13.15 5.51 14.14C6 15.51 7.74 19.49 9.54 19.44C10.36 19.41 10.95 18.82 12.04 18.82C13.1 18.82 13.65 19.44 14.55 19.44C16.36 19.41 17.92 15.83 18.38 14.46C16.07 13.42 17.04 12.59 17.04 12.55Z" fill="black"/>
  <path d="M14.76 5.47C15.68 4.36 15.57 3.35 15.54 3C14.67 3.04 13.67 3.59 13.12 4.25C12.52 4.97 12.17 5.86 12.28 6.61C13.24 6.68 13.9 6.45 14.76 5.47Z" fill="black"/>
</svg> 